<?xml version="1.0" encoding="iso-8859-1"?>
<!-- Generator: Adobe Illustrator 19.0.0, SVG Export Plug-In . SVG Version: 6.00 Build 0)  -->
<svg version="1.1" id="Capa_1" xmlns="http://www.w3.org/2000/svg" xmlns:xlink="http://www.w3.org/1999/xlink" x="0px" y="0px"
	 viewBox="0 0 378.632 378.632" style="enable-background:new 0 0 378.632 378.632;" xml:space="preserve">
<g>
	<g>
		<path d="M373.346,97.426c-2.246-0.81-4.736-0.576-6.791,0.641h0.08l-100.48,58.56l-70.08-108.32
			c-2.397-3.711-7.349-4.777-11.061-2.379c-0.953,0.615-1.764,1.427-2.379,2.379l-70.08,108.32l-100.48-58.56
			c-3.802-2.251-8.709-0.993-10.959,2.809c-1.216,2.055-1.451,4.545-0.641,6.791l78.48,220.96c1.118,3.199,4.131,5.346,7.52,5.36
			h205.76c3.389-0.013,6.402-2.161,7.52-5.36l78.4-220.96C379.655,103.51,377.502,98.925,373.346,97.426z M286.635,317.986H92.075
			l-14.72-40.56h224L286.635,317.986z M306.635,261.426H72.075l-49.2-138.56l88,51.44c3.685,2.137,8.398,1.011,10.72-2.56l67.52-104
			l67.52,104c2.322,3.571,7.035,4.697,10.72,2.56l88-51.44L306.635,261.426z"/>
	</g>
</g>
<g>
</g>
<g>
</g>
<g>
</g>
<g>
</g>
<g>
</g>
<g>
</g>
<g>
</g>
<g>
</g>
<g>
</g>
<g>
</g>
<g>
</g>
<g>
</g>
<g>
</g>
<g>
</g>
<g>
</g>
</svg>
